<?xml version="1.0" encoding="UTF-8" standalone="no"?>
<!DOCTYPE svg PUBLIC "-//W3C//DTD SVG 1.1//EN" "http://www.w3.org/Graphics/SVG/1.1/DTD/svg11.dtd">
<!-- Created with Vectornator (http://vectornator.io/) -->
<svg height="100%" stroke-miterlimit="10" style="fill-rule:nonzero;clip-rule:evenodd;stroke-linecap:round;stroke-linejoin:round;" version="1.1" viewBox="0 0 1024 1024" width="100%" xml:space="preserve" xmlns="http://www.w3.org/2000/svg" xmlns:vectornator="http://vectornator.io" xmlns:xlink="http://www.w3.org/1999/xlink">
<g id="Layer-1" vectornator:layerName="Layer 1">
<path d="M815.458 230.292C758.864 203.813 698.351 184.569 635.087 173.612C627.318 187.659 618.241 206.553 611.982 221.583C544.731 211.469 478.098 211.469 412.083 221.583C405.826 206.553 396.543 187.659 388.704 173.612C325.371 184.569 264.789 203.884 208.195 230.432C94.0458 402.927 63.1017 571.138 78.5737 736.96C154.284 793.498 227.656 827.844 299.79 850.319C317.6 825.807 333.485 799.75 347.169 772.288C321.107 762.385 296.145 750.165 272.56 735.977C278.817 731.342 284.938 726.495 290.851 721.508C434.706 788.793 591.009 788.793 733.146 721.508C739.129 726.495 745.248 731.342 751.437 735.977C727.782 750.234 702.752 762.455 676.691 772.359C690.375 799.75 706.191 825.877 724.069 850.388C796.273 827.913 869.713 793.569 945.423 736.96C963.577 544.73 914.411 378.064 815.458 230.292ZM366.767 634.981C323.583 634.981 288.169 594.666 288.169 545.572C288.169 496.479 322.827 456.094 366.767 456.094C410.708 456.094 446.122 496.408 445.365 545.572C445.434 594.666 410.708 634.981 366.767 634.981ZM657.23 634.981C614.046 634.981 578.632 594.666 578.632 545.572C578.632 496.479 613.289 456.094 657.23 456.094C701.17 456.094 736.585 496.408 735.828 545.572C735.828 594.666 701.17 634.981 657.23 634.981Z" fill="none" opacity="1" stroke="#ffffff" stroke-linecap="butt" stroke-linejoin="round" stroke-width="40" vectornator:layerName="path"/>
</g>
</svg>
